# xmcd
#
# Track frame offsets:
#	150
#	18315
#	34922
#	49590
#	65477
#	77130
#	93357
#	112267
#	126842
#	141365
#	155657
#	172100
#	192795
#	207407
#
# Disc length: 2950 seconds
# Revision: 1
# Processed by: cddbd v1.5.2PL0 Copyright (c) Steve Scherf et al.
# Submitted via: dBpowerAMP V12.0
#
DISCID=cb0b840e
DTITLE=Various Artist - As 14 Mais Sertanejas
DYEAR=2000
DGENRE=Sertanejo
TTITLE0=Matogrosso and Mathias - De Igual Pra Igual
TTITLE1=Duduca and Dalvan - Meus Pedaços
TTITLE2=Christian and Ralf - Chora Peito
TTITLE3=Cleyton Cristiane - Eu Nao Sou Brinquedo Seu
TTITLE4=Cezar and Paulinho - Meia Noite de Amor
TTITLE5=Duduca and Dalvan - Rastros na Areia
TTITLE6=Matogrosso and Mathias - Tributo a Um Caminhoneiro
TTITLE7=Matogrosso and Mathias - Objeto de Prazer
TTITLE8=Ataide and Alexandre - Luzes da Ribalta
TTITLE9=Duduca and Dalvan - Espinheira
TTITLE10=Christian and Ralf - Tempo a Tempo
TTITLE11=Cezar and Paulinho - Você Mulher
TTITLE12=Irmãs Galvão - Estou de Volta
TTITLE13=Ataide and Alexandre - Aparências
EXTD=
EXTT0=
EXTT1=
EXTT2=
EXTT3=
EXTT4=
EXTT5=
EXTT6=
EXTT7=
EXTT8=
EXTT9=
EXTT10=
EXTT11=
EXTT12=
EXTT13=
PLAYORDER=
